<svg id="ilustracao_contato" xmlns="http://www.w3.org/2000/svg" width="451.697" height="416.591" viewBox="0 0 451.697 416.591">
  <path id="Caminho_3779" data-name="Caminho 3779" d="M16.3,497.971H163.444a14.135,14.135,0,0,0,14.094-14.094V193.053a14.136,14.136,0,0,0-14.094-14.094H16.3A14.136,14.136,0,0,0,2.2,193.053V483.877A14.136,14.136,0,0,0,16.3,497.971" transform="translate(-1.777 -81.807)" fill="#fff"/>
  <path id="Caminho_3780" data-name="Caminho 3780" d="M161.666,496.62H14.521A14.537,14.537,0,0,1,0,482.1V191.275a14.537,14.537,0,0,1,14.521-14.52H161.666a14.537,14.537,0,0,1,14.52,14.52V482.1a14.537,14.537,0,0,1-14.52,14.521M14.521,177.608A13.683,13.683,0,0,0,.853,191.275V482.1a13.683,13.683,0,0,0,13.668,13.667H161.666A13.683,13.683,0,0,0,175.333,482.1V191.275a13.683,13.683,0,0,0-13.667-13.667Z" transform="translate(0 -80.03)"/>
  <path id="Caminho_3781" data-name="Caminho 3781" d="M57.341,526.389h136.77a10.712,10.712,0,0,0,10.68-10.68V237.431a10.712,10.712,0,0,0-10.68-10.68H57.341a10.712,10.712,0,0,0-10.68,10.68V515.709a10.712,10.712,0,0,0,10.68,10.68" transform="translate(-37.633 -120.352)" fill="#fff"/>
  <path id="Caminho_3782" data-name="Caminho 3782" d="M192.334,525.038H55.564a11.119,11.119,0,0,1-11.107-11.107V235.654a11.119,11.119,0,0,1,11.107-11.107h136.77a11.119,11.119,0,0,1,11.107,11.107V513.931a11.119,11.119,0,0,1-11.107,11.107M55.564,225.4A10.265,10.265,0,0,0,45.31,235.654V513.931a10.265,10.265,0,0,0,10.254,10.254h136.77a10.265,10.265,0,0,0,10.254-10.254V235.654A10.265,10.265,0,0,0,192.334,225.4Z" transform="translate(-35.855 -118.575)"/>
  <path id="Caminho_3783" data-name="Caminho 3783" d="M393.2,272.054H358.356a.427.427,0,0,1,0-.853H393.2a.427.427,0,1,1,0,.853" transform="translate(-288.679 -156.202)"/>
  <path id="Caminho_3784" data-name="Caminho 3784" d="M287.529,693.278l-15.65-19.4c-2.127-2.508-7.255-4.336-14.052-2.017-6.387,2.18-16.622,5.553-30.864-19.175-14.238-24.712-6.819-32.714-1.136-36.361.86-.552,7.514-6.29,5.29-13.208l-6.953-18.107c-6-14.083-18.5-5.732-19.223-5.269-20.34,13.042-20.232,49.386.517,85.389s52.1,54.286,73.54,43.151c.763-.4,13.787-7.894,8.531-15" transform="translate(-153.07 -402.724)" fill="#14afcd"/>
  <path id="Caminho_3785" data-name="Caminho 3785" d="M653.517,1115.16l-156.162-.1-.071-105.766L573.4,944.205l80.048,65.188Z" transform="translate(-401.07 -698.996)" fill="#fff"/>
  <path id="Caminho_3786" data-name="Caminho 3786" d="M651.739,1113.808h0l-156.162-.1a.427.427,0,0,1-.426-.427l-.071-105.766a.426.426,0,0,1,.15-.324L571.344,942.1a.427.427,0,0,1,.547-.006l80.048,65.188a.427.427,0,0,1,.157.33l.07,105.766a.426.426,0,0,1-.426.427M496,1112.852l155.309.1-.07-105.136-79.615-64.836-75.695,64.726Z" transform="translate(-399.293 -697.217)"/>
  <path id="Caminho_3787" data-name="Caminho 3787" d="M597.455,1365.868a.426.426,0,0,1-.265-.092l-72.545-57.538a.426.426,0,1,1,.53-.668l72.277,57.325,71.109-57.749a.427.427,0,0,1,.538.662l-71.375,57.965a.428.428,0,0,1-.269.1" transform="translate(-423.008 -991.638)"/>
  <path id="Caminho_3788" data-name="Caminho 3788" d="M741.771,1138.52l-48.527,39.668L643.2,1138.455l-.042-63.583,98.574.065Z" transform="translate(-518.719 -804.381)" fill="#fff"/>
  <path id="Caminho_3789" data-name="Caminho 3789" d="M691.465,1176.836a.427.427,0,0,1-.265-.093l-50.047-39.733a.427.427,0,0,1-.161-.334l-.043-63.583a.427.427,0,0,1,.427-.427h0l98.574.065a.426.426,0,0,1,.426.426l.043,63.583a.426.426,0,0,1-.157.33l-48.527,39.668a.425.425,0,0,1-.27.1m-49.62-40.366,49.617,39.392,48.1-39.322-.042-62.955-97.721-.065Z" transform="translate(-516.939 -802.603)"/>
  <path id="Caminho_3790" data-name="Caminho 3790" d="M743.471,1224.271a8.622,8.622,0,1,1-8.628-8.594,8.592,8.592,0,0,1,8.628,8.594" transform="translate(-585.719 -917.944)" fill="#14afcd"/>
  <path id="Caminho_3791" data-name="Caminho 3791" d="M873.518,1224.358a8.622,8.622,0,1,1-8.628-8.594,8.591,8.591,0,0,1,8.628,8.594" transform="translate(-690.604 -918.014)" fill="#14afcd"/>
  <path id="Caminho_3792" data-name="Caminho 3792" d="M1003.566,1224.444a8.622,8.622,0,1,1-8.627-8.594,8.592,8.592,0,0,1,8.627,8.594" transform="translate(-795.491 -918.083)" fill="#14afcd"/>
  <g id="Grupo_2826" data-name="Grupo 2826" transform="translate(222.807)">
    <g id="Grupo_2825" data-name="Grupo 2825" transform="translate(0)">
      <path id="Caminho_3793" data-name="Caminho 3793" d="M2056.978,204.3c-6.918-6.689-17.752-7.916-27.066-5.5a42.764,42.764,0,0,0-24.02,16.944c-5.095,7.326-9.852,17.751-5.556,26.464,2.747,5.572,8.263,9.477,14.243,11.162s12.384,1.329,18.446-.026c10.882-2.434,21.4-8.479,26.964-18.14s5.005-23.156-3.011-30.907" transform="translate(-1834.776 -190.943)"/>
      <path id="Caminho_3794" data-name="Caminho 3794" d="M1712.041,173.533a42.8,42.8,0,0,0-45.208-7c-6.959,3.154-13.271,8.635-15.491,15.946s.772,16.4,7.776,19.452c-3.67,1.009-4.675,6.3-2.5,9.425s6.265,4.308,10.067,4.449,7.769-.524,11.366.753c2.642.937,4.811,2.832,6.993,4.592,6.218,5.018,13.492,9.387,21.478,9.643,22.409.719,21.9-29.218,15.318-43.735a40.963,40.963,0,0,0-9.8-13.524" transform="translate(-1554.07 -162.966)"/>
      <path id="Caminho_3795" data-name="Caminho 3795" d="M1424.324,1393.614l26.178-104.208,88.354,17.975c20.054,26.518,28,58.827,30.824,86.233Z" transform="translate(-1371.556 -1071.465)" fill="#fff"/>
      <path id="Caminho_3796" data-name="Caminho 3796" d="M1570.455,1389.652a.427.427,0,0,1-.424-.385,185.185,185.185,0,0,0-12.3-51.073,151.783,151.783,0,0,0-11.311-22.355c-1.1-1.781-2.246-3.557-3.413-5.278-.22-.325-.447-.7-.686-1.1-.846-1.4-1.9-3.135-3.161-3.4-4.442-.915-9.057-1.856-14.11-2.876-9.723-1.963-19.615-3.925-29.182-5.824-8.938-1.773-18.18-3.607-27.264-5.437q-7.059-1.422-14.114-2.869l-1.925-.4c-.125-.026-.23-.051-.32-.072-.059-.014-.124-.029-.174-.039-.041.076-.1.2-.146.3a9.635,9.635,0,0,0-.58,2.232c-.073.408-.143.794-.232,1.161q-.844,3.474-1.7,6.943c-2.45,9.9-4.934,19.588-7.04,27.758q-1.351,5.238-2.707,10.475c-3.8,14.7-7.736,29.9-11.381,44.9q-.837,3.449-1.659,6.9a.426.426,0,1,1-.83-.2q.821-3.455,1.66-6.906c3.647-15.01,7.58-30.213,11.384-44.916q1.355-5.237,2.707-10.475c2.106-8.168,4.59-17.852,7.039-27.75q.859-3.467,1.7-6.939c.083-.342.151-.715.222-1.111a10.245,10.245,0,0,1,.645-2.438c.346-.748.517-.919,1.289-.738.084.02.183.043.3.067l1.924.4q7.052,1.449,14.11,2.868c9.083,1.83,18.325,3.663,27.262,5.437,9.567,1.9,19.461,3.861,29.185,5.824,5.053,1.02,9.67,1.961,14.114,2.876,1.627.335,2.786,2.25,3.718,3.79.234.386.455.752.663,1.059,1.173,1.731,2.328,3.517,3.433,5.309a152.676,152.676,0,0,1,11.375,22.481,186.039,186.039,0,0,1,12.357,51.312.427.427,0,0,1-.383.466l-.042,0" transform="translate(-1372.733 -1070.09)"/>
      <path id="Caminho_3797" data-name="Caminho 3797" d="M1667.611,1689.331h-.039a.427.427,0,0,1-.386-.464l.1-1.063a60.009,60.009,0,0,0,.382-9.333c-.709-11.094-10.352-15.644-18.673-18.368a.427.427,0,0,1,.266-.811c8.576,2.808,18.516,7.52,19.258,19.125a60.714,60.714,0,0,1-.384,9.465l-.1,1.062a.428.428,0,0,1-.425.388" transform="translate(-1552.52 -1369.769)"/>
      <path id="Caminho_3798" data-name="Caminho 3798" d="M1724.653,458.481l13.082,44.915s-24.973,30.778-43.791,29.565-15.312-22.515-1.29-29.129l13.687-3.964-4.083-35.207Z" transform="translate(-1578.547 -401.306)" fill="#fff"/>
      <path id="Caminho_3799" data-name="Caminho 3799" d="M1693.249,531.644c-.382,0-.76-.012-1.138-.036-7.254-.468-12.043-4.042-13.14-9.805-1.432-7.521,3.705-16.366,11.7-20.135a.442.442,0,0,1,.063-.024l13.341-3.863-4.041-34.848a.426.426,0,0,1,.31-.46l22.394-6.181a.428.428,0,0,1,.523.292l13.082,44.915a.427.427,0,0,1-.078.388c-1,1.238-24.364,29.755-43.012,29.758M1691,502.454c-7.638,3.619-12.553,12.041-11.192,19.189,1.034,5.43,5.422,8.666,12.357,9.114,17.659,1.139,41.244-26.77,43.29-29.237l-12.9-44.294-21.636,5.972,4.04,34.844a.426.426,0,0,1-.305.459Z" transform="translate(-1576.742 -399.528)"/>
      <path id="Caminho_3800" data-name="Caminho 3800" d="M1699.619,348.286a30.478,30.478,0,0,0,.773,15.566c1.746,4.956,5.423,9.373,10.331,11.249a18.166,18.166,0,0,0,13.328-.52,28.669,28.669,0,0,0,10.7-8.286,11.006,11.006,0,0,0,12.543-4.266,8.148,8.148,0,0,0,.8-7.843c-1.218-2.464-4.424-3.937-6.909-2.763-1.417.669-2.424,2.034-3.866,2.644a5.385,5.385,0,0,1-4.977-.7,10.885,10.885,0,0,1-3.321-3.984,23.017,23.017,0,0,1-2.148-15.995c-.118.506-2.807,1.269-3.286,1.431a22.162,22.162,0,0,1-3.7.9,23.156,23.156,0,0,1-7.5-.07,22.625,22.625,0,0,1-3.692-.965c-.953-.338-2.19-1.24-3.205-1.251-2.122-.023-2.755,3.847-3.267,5.343a66.372,66.372,0,0,0-2.6,9.5" transform="translate(-1593.069 -300.419)" fill="#fff"/>
      <path id="Caminho_3801" data-name="Caminho 3801" d="M1714.721,374.777a16.634,16.634,0,0,1-5.938-1.055,18.892,18.892,0,0,1-10.581-11.506,30.635,30.635,0,0,1-.79-15.784,66.225,66.225,0,0,1,2.618-9.563c.086-.249.175-.569.278-.94.523-1.87,1.311-4.691,3.373-4.691h.025a5.625,5.625,0,0,1,2.31.8,9.4,9.4,0,0,0,1.032.478,22.271,22.271,0,0,0,3.622.947,22.64,22.64,0,0,0,7.36.069,21.815,21.815,0,0,0,3.634-.887c.069-.023.183-.059.329-.1a8.827,8.827,0,0,0,2.7-1.074.426.426,0,0,1,.814.248,22.647,22.647,0,0,0,2.109,15.7,10.266,10.266,0,0,0,3.183,3.832,4.939,4.939,0,0,0,4.573.657,8.028,8.028,0,0,0,1.907-1.293,9.534,9.534,0,0,1,1.943-1.344c2.6-1.227,6.089.157,7.474,2.959a8.489,8.489,0,0,1-.823,8.264,11.518,11.518,0,0,1-12.762,4.532,28.712,28.712,0,0,1-10.678,8.183,20.1,20.1,0,0,1-7.708,1.58m-11.039-42.687c-1.417,0-2.1,2.447-2.553,4.068-.107.384-.2.715-.293.987a65.527,65.527,0,0,0-2.586,9.44,29.8,29.8,0,0,0,.756,15.347,18.029,18.029,0,0,0,10.081,10.993,17.751,17.751,0,0,0,13.012-.515,28.042,28.042,0,0,0,10.541-8.166.427.427,0,0,1,.47-.128,10.614,10.614,0,0,0,12.042-4.1,7.741,7.741,0,0,0,.775-7.423c-1.167-2.361-4.19-3.584-6.345-2.566a8.776,8.776,0,0,0-1.765,1.231,8.777,8.777,0,0,1-2.118,1.421,5.8,5.8,0,0,1-5.381-.735,11.072,11.072,0,0,1-3.458-4.135,23.543,23.543,0,0,1-2.406-15.244,21.543,21.543,0,0,1-2.207.783c-.137.043-.244.076-.31.1a22.668,22.668,0,0,1-3.776.922,23.487,23.487,0,0,1-7.637-.072,23.122,23.122,0,0,1-3.761-.983,10,10,0,0,1-1.134-.522,5.107,5.107,0,0,0-1.932-.7h-.014m-5.851,14.418h0Zm26.84-14.991h0Z" transform="translate(-1591.281 -298.64)"/>
      <path id="Caminho_3802" data-name="Caminho 3802" d="M1897.761,460.157a6.523,6.523,0,0,0-6.078,3.651Z" transform="translate(-1748.492 -402.651)" fill="#fff"/>
      <path id="Caminho_3803" data-name="Caminho 3803" d="M1889.905,462.456a.422.422,0,0,1-.181-.041.427.427,0,0,1-.205-.567,6.952,6.952,0,0,1,6.485-3.9.427.427,0,0,1-.043.852,6.08,6.08,0,0,0-5.67,3.406.427.427,0,0,1-.386.245" transform="translate(-1746.715 -400.873)"/>
      <path id="Caminho_3804" data-name="Caminho 3804" d="M1560.413,817.388c9.2-4.8,15.025-14.209,19.432-23.608a166.4,166.4,0,0,0,15.309-70.974c-.038-12.1-1.542-24.83-8.615-34.648-7.654-10.624-20.741-16.144-33.69-18.094-5.216-.785-10.753-1.034-15.562,1.135-6.249,2.818-10.056,9.086-14.763,14.068a44.664,44.664,0,0,1-20.212,12.239c-4.9,1.383-10.814,1.726-14.016-2.973a10.361,10.361,0,0,1-1.541-7.229c.705-5.295,4.165-9.375,7.525-13.283-6.447-1.043-13.081,1.534-18.171,5.625s-8.857,9.578-12.289,15.134c-10.489,16.985-18.547,35.391-25,54.282-2.282,6.683-4.394,13.666-3.667,20.691.823,7.947,2.3,15.532,8.164,20.955,1.9,1.755,3.7,3.325,5.278,4.647a13.787,13.787,0,0,0,10.785,3.031c21.31-2.934,72.853,13.777,77.214,17.313,6.567,5.324,16.48,5.515,23.819,1.688" transform="translate(-1380.173 -571.496)" fill="#14afcd"/>
      <path id="Caminho_3805" data-name="Caminho 3805" d="M1972.584,960.912a.432.432,0,0,1-.13-.02.427.427,0,0,1-.277-.536l10.184-31.969a.427.427,0,0,1,.813.259l-10.184,31.969a.428.428,0,0,1-.407.3" transform="translate(-1813.396 -780.056)"/>
      <path id="Caminho_3806" data-name="Caminho 3806" d="M1600.638,921.723a.438.438,0,0,1-.061,0,.427.427,0,0,1-.362-.483,133.117,133.117,0,0,1,6.554-26.249.427.427,0,1,1,.8.29,132.247,132.247,0,0,0-6.511,26.08.427.427,0,0,1-.422.366" transform="translate(-1513.414 -753.13)"/>
      <path id="Caminho_3807" data-name="Caminho 3807" d="M1606.559,1106.547c-.356,1.167-.869,2.488-2.027,2.87a3.039,3.039,0,0,1-2.775-.516c-16.035-13.084-28.823-21.512-47.815-29.684-2.413-1.038,1.4,9.505-12.337.091-2.167-1.485-.356-5.917,2.235-6.351a4.979,4.979,0,0,1-1.213-9.53c-2.075.388-4.007-1.681-4.107-3.79a7.643,7.643,0,0,1,2.653-5.544c-5.744,2.789-13.8,10.917-18.351,5.438-1.22-5.551,2.663-8.506,6.969-12.214s9.921-5.546,15.506-6.6c12.419-2.336,25.354-1.174,37.492,2.343a122.288,122.288,0,0,1,30.282,13.818c2.319,1.44,3.093,1.751,3.127,4.426.037,2.868-.8,6.022-1.248,8.852q-1.4,8.835-3.381,17.562-2.16,9.5-5.009,18.826" transform="translate(-1450.813 -869.913)" fill="#fff"/>
      <path id="Caminho_3808" data-name="Caminho 3808" d="M1658.178,1235a.426.426,0,0,1-.13-.02l-5.491-1.752a.427.427,0,1,1,.259-.813l5.492,1.753a.426.426,0,0,1-.13.833" transform="translate(-1555.392 -1025.484)"/>
      <path id="Caminho_3809" data-name="Caminho 3809" d="M2031.482,1152.167a.424.424,0,0,1-.27-.1,85.327,85.327,0,0,0-17.838-11.265.427.427,0,1,1,.362-.772,86.155,86.155,0,0,1,18.017,11.378.427.427,0,0,1-.271.756" transform="translate(-1846.441 -950.959)"/>
      <path id="Caminho_3810" data-name="Caminho 3810" d="M1294.3,1105.417c-.087,3.623-1.122,7.5-3.982,9.732-3.678,2.864-8.949,2.052-13.429.764-21.264-6.115-40.441-17.907-51.466-37.091-.455-.792-4.5-10.49-2.845-12.679,1.559-2.06,5.429,1.852,7.957,2.383a268.041,268.041,0,0,1,32.331,8.934q8.155,2.813,16.118,6.146c4.056,1.7,7.506,2.157,10.216,5.834a26.154,26.154,0,0,1,5.1,15.977" transform="translate(-1208.526 -890.919)" fill="#fff"/>
      <path id="Caminho_3811" data-name="Caminho 3811" d="M1275.186,1117.039a.423.423,0,0,1-.118-.017c-23.738-6.826-41.622-19.72-51.718-37.288-.346-.6-4.683-10.68-2.814-13.149a.426.426,0,1,1,.68.515c-1.4,1.852,2.223,11.076,2.874,12.209,9.984,17.372,27.693,30.129,51.214,36.893a.427.427,0,0,1-.118.837" transform="translate(-1206.82 -891.619)"/>
      <path id="Caminho_3812" data-name="Caminho 3812" d="M1154.316,972.738h39.092a2.716,2.716,0,0,1,2.135,1.038l31.513,40.1a2.716,2.716,0,0,1-2.136,4.395h-37.739a2.714,2.714,0,0,1-2.1-.994l-32.866-40.1a2.716,2.716,0,0,1,2.1-4.438" transform="translate(-1151.594 -816.065)"/>
    </g>
    <path id="Caminho_3813" data-name="Caminho 3813" d="M1229.486,996.68c.47-.431,1.139-.854,1.7-.551.489.263.579.914.61,1.468q.467,8.143.934,16.286c-.065-4.855,1.2-9.877,4.341-13.577.774-.911,2.141-1.769,3.056-1a2.406,2.406,0,0,1,.562,2c-.269,6.094-2.709,12.393-.566,18.1a41.589,41.589,0,0,1,2.561-10.616,7.757,7.757,0,0,1,2.425-3.7c1.219-.868,3.138-.919,4.049.267.968,1.259.369,3.054-.163,4.55a34.3,34.3,0,0,0-1.91,13.584c.592-3.59,1.329-7.461,4.007-9.924a4.875,4.875,0,0,1,2.815-1.39,2.72,2.72,0,0,1,2.674,1.375c.506,1.058.088,2.3-.25,3.423a23.636,23.636,0,0,0-.008,13.368c.95,3.25,5.022,7.625.715,10.162a7.71,7.71,0,0,1-5,.695c-4.8-.688-8.969-3.585-12.72-6.656a52.212,52.212,0,0,1-10.259-10.664,26.176,26.176,0,0,1-4.859-13.818,17.568,17.568,0,0,1,5.286-13.392" transform="translate(-1210.145 -834.848)" fill="#fff"/>
  </g>
  <path id="Caminho_3814" data-name="Caminho 3814" d="M1352.267,6.732a6.741,6.741,0,1,1,6.741,6.732,6.736,6.736,0,0,1-6.741-6.732" transform="translate(-1134.455 24.613)" fill="#14afcd"/>
  <path id="Caminho_3815" data-name="Caminho 3815" d="M1250.592,6.732a6.741,6.741,0,1,1,6.741,6.732,6.736,6.736,0,0,1-6.741-6.732" transform="translate(-989.386 24.613)" fill="#14afcd"/>
  <path id="Caminho_3816" data-name="Caminho 3816" d="M1148.917,6.732a6.741,6.741,0,1,1,6.741,6.732,6.736,6.736,0,0,1-6.741-6.732" transform="translate(-909.408 24.613)" fill="#14afcd"/>
  <path id="Caminho_3817" data-name="Caminho 3817" d="M453.734,48.26c-.344,0-.623-.191-.623-.426V33.725c0-.235.279-.426.623-.426H632.769c.344,0,.623.191.623.426s-.279.427-.623.427H454.357V47.834c0,.235-.278.426-.623.426" transform="translate(-365.444 14.267)" fill="#14afcd"/>
  <path id="Caminho_3818" data-name="Caminho 3818" d="M1385.33,209.269c-.236,0-.427-.12-.427-.269v-97.23c0-.148.191-.269.427-.269s.426.12.426.269V209c0,.148-.19.269-.426.269" transform="translate(-1116.956 -63.936)" fill="#14afcd"/>
  <rect id="Retângulo_4618" data-name="Retângulo 4618" width="451.697" height="354.063" transform="translate(0 62.527)" fill="none"/>
</svg>
