<svg xmlns="http://www.w3.org/2000/svg" xmlns:xlink="http://www.w3.org/1999/xlink" width="507" height="282" viewBox="0 0 507 282">
  <defs>
    <linearGradient id="linear-gradient" x1="0.878" y1="0.199" x2="0.1" y2="0.838" gradientUnits="objectBoundingBox">
      <stop offset="0" stop-color="#2ca6ae"/>
      <stop offset="1" stop-color="#0968b2"/>
    </linearGradient>
    <filter id="Retângulo_20" x="0" y="0" width="507" height="282" filterUnits="userSpaceOnUse">
      <feOffset dy="17" input="SourceAlpha"/>
      <feGaussianBlur stdDeviation="25" result="blur"/>
      <feFlood flood-opacity="0.161"/>
      <feComposite operator="in" in2="blur"/>
      <feComposite in="SourceGraphic"/>
    </filter>
  </defs>
  <g id="Banner_home_Tel" transform="translate(75 58)">
    <g transform="matrix(1, 0, 0, 1, -75, -58)" filter="url(#Retângulo_20)">
      <rect id="Retângulo_20-2" data-name="Retângulo 20" width="357" height="132" rx="15" transform="translate(75 58)" fill="url(#linear-gradient)"/>
    </g>
    <g id="Grupo_2780" data-name="Grupo 2780" transform="translate(-390 -2217)">
      <g id="Grupo_2770" data-name="Grupo 2770" transform="translate(-17.178 30)">
        <text id="De_segunda_à_sexta_das_09:00h_ás_17:00h" data-name="De segunda à sexta, das 09:00h ás 17:00h" transform="translate(482.178 2297)" fill="#fff" font-size="10" font-family="Montserrat-Medium, Montserrat" font-weight="500"><tspan x="0" y="0">De segunda à sexta, das 09:00h ás 17:00h</tspan></text>
        <text id="_21_2000-1000" data-name="21 2000-1000" transform="translate(502.178 2281)" fill="#fff" font-size="25" font-family="Montserrat-Bold, Montserrat" font-weight="700"><tspan x="0" y="0">21 2000-1000</tspan></text>
      </g>
      <g id="noun-call-1956591" transform="translate(455.588 2145.543)">
        <path id="Caminho_3681" data-name="Caminho 3681" d="M105.7,121.158a28.413,28.413,0,0,0,4.774,3.864l2.27-3.6a.956.956,0,0,1,1.238-.344l9.416,4.707a.956.956,0,0,1,.459,1.211l-3.137,7.848a.956.956,0,0,1-1.052.587,34.352,34.352,0,0,1-28.245-28.245.956.956,0,0,1,.587-1.052L99.862,103a.956.956,0,0,1,1.211.459l4.705,9.418a.956.956,0,0,1-.344,1.238l-3.6,2.27a28.415,28.415,0,0,0,3.864,4.774Zm5.885,5.683a.956.956,0,0,1-1.295.312,30.916,30.916,0,0,1-10.585-10.585.956.956,0,0,1,.312-1.295l3.663-2.314L99.753,105.1l-6.3,2.521a32.412,32.412,0,0,0,25.787,25.787l2.521-6.3-7.856-3.929Zm.14-10.549a.956.956,0,0,1-1.159-1.159l1.375-5.5a12.433,12.433,0,1,1,5.285,5.285l-5.5,1.377Zm5.4-3.32a.956.956,0,0,1,.7.1,10.52,10.52,0,1,0-4.03-4.03.956.956,0,0,1,.1.7l-1.081,4.315Zm2.022-11.953a.956.956,0,0,1,0-1.913H126.8a.956.956,0,1,1,0,1.913Zm0,3.825a.956.956,0,1,1,0-1.913h7.71a.956.956,0,1,1,0,1.913Zm0,3.825a.956.956,0,0,1,0-1.913h3.825a.956.956,0,1,1,0,1.913Z" transform="translate(0 0)" fill="#fff"/>
      </g>
    </g>
  </g>
</svg>
