<svg xmlns="http://www.w3.org/2000/svg" xmlns:xlink="http://www.w3.org/1999/xlink" width="507" height="282" viewBox="0 0 507 282">
  <defs>
    <linearGradient id="linear-gradient" x1="0.878" y1="0.199" x2="0.1" y2="0.838" gradientUnits="objectBoundingBox">
      <stop offset="0" stop-color="#2ca6ae"/>
      <stop offset="1" stop-color="#0968b2"/>
    </linearGradient>
    <filter id="Ret창ngulo_21" x="0" y="0" width="507" height="282" filterUnits="userSpaceOnUse">
      <feOffset dy="17" input="SourceAlpha"/>
      <feGaussianBlur stdDeviation="25" result="blur"/>
      <feFlood flood-opacity="0.161"/>
      <feComposite operator="in" in2="blur"/>
      <feComposite in="SourceGraphic"/>
    </filter>
  </defs>
  <g id="Banner_home_whatsapp" transform="translate(75 58)">
    <g transform="matrix(1, 0, 0, 1, -75, -58)" filter="url(#Ret창ngulo_21)">
      <rect id="Ret창ngulo_21-2" data-name="Ret창ngulo 21" width="357" height="132" rx="15" transform="translate(75 58)" fill="url(#linear-gradient)"/>
    </g>
    <g id="Grupo_2779" data-name="Grupo 2779" transform="translate(-782 -2223.617)">
      <text id="_21_2000-1000" data-name="21 2000-1000" transform="translate(877 2331.554)" fill="#fff" font-size="25" font-family="Montserrat-Bold, Montserrat" font-weight="700"><tspan x="0" y="0">21 2000-1000</tspan></text>
      <g id="Grupo_2778" data-name="Grupo 2778" transform="translate(-1)">
        <g id="noun-whatsapp-6272210" transform="translate(893.496 2228.307)">
          <g id="Grupo_2772" data-name="Grupo 2772" transform="translate(47.504 14.31)">
            <path id="Caminho_3682" data-name="Caminho 3682" d="M51.567,44.314l-3.833-2.8A2.241,2.241,0,0,0,44.607,42l-1.186,1.623c-.062.084-.039.006-.067.112-.006.011-.073.1-.285.134-.358.056-1.432-.011-3.754-1.869l-.224-.162c-2.445-1.628-2.837-2.63-2.893-2.988a.693.693,0,0,1,.011-.28c.078-.05.056-.05.117-.129l1.186-1.623a2.212,2.212,0,0,0,.4-1.667,2.24,2.24,0,0,0-.89-1.466l-3.9-2.848A2.242,2.242,0,0,0,30,31.328l-1.2,1.645a5.734,5.734,0,0,0-.744,5.175c.923,2.691,3.279,5.55,7,8.5a.961.961,0,0,0,.173.162c.1.067.19.134.285.2s.185.14.274.213a.76.76,0,0,0,.207.117c3.95,2.646,7.391,4.017,10.239,4.079h.112a5.608,5.608,0,0,0,4.521-2.339l1.2-1.645a2.212,2.212,0,0,0,.4-1.667A2.238,2.238,0,0,0,51.567,44.314ZM50.7,46.452,49.5,48.1a3.95,3.95,0,0,1-3.245,1.645c-1.807-.039-4.957-.783-9.763-4.084-4.6-3.57-6.278-6.345-6.865-8.051a4.018,4.018,0,0,1,.515-3.642l1.2-1.645a.55.55,0,0,1,.364-.224.566.566,0,0,1,.42.1l3.9,2.848a.55.55,0,0,1,.224.364.566.566,0,0,1-.1.42L35.006,37.4a2.029,2.029,0,0,0-.492,1.494c.09,1.348,1.281,2.764,3.62,4.319l.168.117c2.216,1.774,3.933,2.479,5.243,2.148a2.025,2.025,0,0,0,1.276-.923l1.147-1.572a.562.562,0,0,1,.783-.123l3.833,2.8a.55.55,0,0,1,.224.364A.6.6,0,0,1,50.7,46.452Z" transform="translate(-20.744 -21.403)" fill="#fff"/>
            <path id="Caminho_3683" data-name="Caminho 3683" d="M34.684,14.31A19.447,19.447,0,0,0,19.812,46.3L16.36,53.027a.837.837,0,0,0,.744,1.22.891.891,0,0,0,.241-.034l9.26-2.753a19.28,19.28,0,0,0,8.079,1.751,19.451,19.451,0,1,0,0-38.9Zm0,37.223A17.644,17.644,0,0,1,27.03,49.8a.824.824,0,0,0-.6-.045l-7.682,2.283,2.814-5.489a.843.843,0,0,0-.123-.946,17.771,17.771,0,1,1,13.243,5.925Z" transform="translate(-15.23 -14.31)" fill="#fff"/>
          </g>
        </g>
        <text id="WhatsApp" transform="translate(934 2300.104)" fill="#fff" font-size="10" font-family="Montserrat-Medium, Montserrat" font-weight="500"><tspan x="0" y="0">WhatsApp</tspan></text>
      </g>
    </g>
  </g>
</svg>
