<?xml version="1.0" encoding="utf-8"?>
<!-- Generator: Adobe Illustrator 16.0.0, SVG Export Plug-In . SVG Version: 6.00 Build 0)  -->
<!DOCTYPE svg PUBLIC "-//W3C//DTD SVG 1.0//EN" "http://www.w3.org/TR/2001/REC-SVG-20010904/DTD/svg10.dtd">
<svg version="1.0" id="Layer_1" xmlns="http://www.w3.org/2000/svg" xmlns:xlink="http://www.w3.org/1999/xlink" x="0px" y="0px"
	 width="100px" height="100px" viewBox="0 0 100 100" enable-background="new 0 0 100 100" xml:space="preserve">
<path fill="none" stroke="#000000" stroke-width="2" stroke-linecap="round" stroke-linejoin="round" stroke-miterlimit="10" d="
	M29.515,89.726c3.834,0.765,7.004-0.106,9.022-2.127l0.006,0.007C61.668,78.019,78.72,59.975,87.6,38.541
	c2.019-2.021,2.892-5.193,2.125-9.025l-1.744-8.709c-0.575-2.874-3.192-6.302-5.816-7.613L75.783,10L59.055,26.727l5.578,11.15
	l0.002,0.003c0,0,3.215,0.643,7.819,1.562C69.676,56.352,56.35,69.673,39.442,72.455c-0.921-4.605-1.565-7.816-1.565-7.816
	l-0.003-0.004l-11.148-5.577L10,75.784l3.191,6.375c1.313,2.62,4.742,5.24,7.618,5.817L29.515,89.726z"/>
</svg>
